<svg id="call" xmlns="http://www.w3.org/2000/svg" width="20.82" height="20.819" viewBox="0 0 20.82 20.819">
  <g id="Group_29" data-name="Group 29" transform="translate(0 0)">
    <g id="Group_28" data-name="Group 28">
      <path id="Path_64" data-name="Path 64" d="M21.274,17.079l-4.214-2.81a1.23,1.23,0,0,0-1.647.267l-1.228,1.578a.525.525,0,0,1-.673.142l-.234-.129A14.112,14.112,0,0,1,9.6,13.239,14.169,14.169,0,0,1,6.713,9.561l-.128-.234a.525.525,0,0,1,.139-.675L8.3,7.425a1.231,1.231,0,0,0,.268-1.647L5.758,1.564a1.224,1.224,0,0,0-1.649-.371L2.347,2.252A2.486,2.486,0,0,0,1.213,3.723c-.635,2.312-.157,6.3,5.721,12.181,4.676,4.676,8.157,5.933,10.55,5.933a6.147,6.147,0,0,0,1.631-.213,2.483,2.483,0,0,0,1.471-1.133l1.06-1.761A1.224,1.224,0,0,0,21.274,17.079Zm-.227,1.294L19.99,20.135a1.793,1.793,0,0,1-1.058.82c-2.134.586-5.864.1-11.507-5.543S1.3,6.041,1.883,3.906A1.8,1.8,0,0,1,2.7,2.847L4.466,1.789a.531.531,0,0,1,.716.161L6.709,4.242,7.99,6.164a.534.534,0,0,1-.116.715L6.3,8.106a1.214,1.214,0,0,0-.322,1.559l.125.228A14.719,14.719,0,0,0,9.107,13.73a14.734,14.734,0,0,0,3.837,3.007l.228.126a1.214,1.214,0,0,0,1.559-.322l1.227-1.578a.534.534,0,0,1,.715-.116l4.214,2.81A.53.53,0,0,1,21.047,18.373Z" transform="translate(-1 -1.018)" fill="#439e55"/>
      <path id="Path_65" data-name="Path 65" d="M282.975,70.018a5.9,5.9,0,0,1,5.9,5.9.347.347,0,1,0,.694,0,6.6,6.6,0,0,0-6.592-6.592.347.347,0,0,0,0,.694Z" transform="translate(-271.177 -66.547)" fill="#439e55"/>
      <path id="Path_66" data-name="Path 66" d="M282.975,121.218a3.821,3.821,0,0,1,3.816,3.817.347.347,0,1,0,.694,0,4.516,4.516,0,0,0-4.51-4.51.347.347,0,0,0,0,.694Z" transform="translate(-271.177 -115.665)" fill="#439e55"/>
      <path id="Path_67" data-name="Path 67" d="M282.975,172.418a1.737,1.737,0,0,1,1.735,1.735.347.347,0,1,0,.694,0,2.431,2.431,0,0,0-2.429-2.429.347.347,0,1,0,0,.694Z" transform="translate(-271.177 -164.783)" fill="#439e55"/>
    </g>
  </g>
</svg>
