<svg id="envelope" xmlns="http://www.w3.org/2000/svg" width="19.315" height="14.699" viewBox="0 0 19.315 14.699">
  <g id="Group_25" data-name="Group 25">
    <path id="Path_58" data-name="Path 58" d="M16.957,57.75H2.362A2.364,2.364,0,0,0,0,60.112v9.975a2.364,2.364,0,0,0,2.362,2.362H16.953a2.364,2.364,0,0,0,2.362-2.362V60.116A2.361,2.361,0,0,0,16.957,57.75ZM18.24,70.087a1.284,1.284,0,0,1-1.283,1.283H2.362a1.284,1.284,0,0,1-1.283-1.283V60.116a1.284,1.284,0,0,1,1.283-1.283H16.953a1.284,1.284,0,0,1,1.283,1.283v9.971Z" transform="translate(0 -57.75)" fill="#439e55"/>
    <path id="Path_59" data-name="Path 59" d="M65.706,114.084l4.724-4.236a.541.541,0,1,0-.723-.8l-6.514,5.847-1.271-1.135s-.008-.008-.008-.012a.8.8,0,0,0-.088-.076l-5.172-4.628a.541.541,0,0,0-.719.807l4.78,4.272-4.76,4.456a.542.542,0,0,0-.024.763.552.552,0,0,0,.4.172.541.541,0,0,0,.368-.144l4.832-4.52,1.311,1.171a.538.538,0,0,0,.719,0l1.347-1.207,4.8,4.564a.541.541,0,0,0,.763-.02.542.542,0,0,0-.02-.763Z" transform="translate(-53.524 -106.858)" fill="#439e55"/>
  </g>
</svg>
