<svg id="home" xmlns="http://www.w3.org/2000/svg" width="20.669" height="22.809" viewBox="0 0 20.669 22.809">
  <g id="Group_31" data-name="Group 31" transform="translate(0)">
    <g id="Group_30" data-name="Group 30">
      <path id="Path_68" data-name="Path 68" d="M92.258,281.351a.38.38,0,0,0-.38.38v8.748a.38.38,0,0,1-.38.38h-3.8v-5.7a1.141,1.141,0,0,0-1.141-1.141h-3.8a1.141,1.141,0,0,0-1.141,1.141v5.7h-3.8a.38.38,0,0,1-.38-.38v-8.748a.38.38,0,0,0-.761,0v8.748a1.141,1.141,0,0,0,1.141,1.141H91.5a1.141,1.141,0,0,0,1.141-1.141v-8.748A.38.38,0,0,0,92.258,281.351Zm-5.325,9.508H82.37v-5.7a.38.38,0,0,1,.38-.38h3.8a.38.38,0,0,1,.38.38v5.7Z" transform="translate(-74.318 -268.811)" fill="#439e55"/>
      <path id="Path_69" data-name="Path 69" d="M44.336,9.8,35.143.333a1.152,1.152,0,0,0-1.621,0L24.33,9.8a1.174,1.174,0,0,0-.237,1.279,1.125,1.125,0,0,0,1.047.7h.13a1.131,1.131,0,0,0,.738-.283.535.535,0,0,0,.076-.06l8.249-8.5,8.255,8.5a.525.525,0,0,0,.071.057,1.132,1.132,0,0,0,.737.282h.13a1.125,1.125,0,0,0,1.048-.7A1.174,1.174,0,0,0,44.336,9.8Zm-.464.984a.376.376,0,0,1-.347.238H43.4a.367.367,0,0,1-.266-.114s-.007,0-.009-.006a.093.093,0,0,0-.009-.009L34.6,2.127l0,0,0-.006a.348.348,0,0,0-.059-.038.364.364,0,0,0-.064-.041.353.353,0,0,0-.072-.015.206.206,0,0,0-.141,0,.357.357,0,0,0-.072.015.369.369,0,0,0-.064.041.347.347,0,0,0-.059.038l0,0,0,0-8.508,8.762s0,.006-.008.009a.064.064,0,0,0-.01.007.367.367,0,0,1-.266.114h-.129a.377.377,0,0,1-.347-.238.413.413,0,0,1,.082-.454h0L34.066.864a.373.373,0,0,1,.53,0l9.194,9.463A.413.413,0,0,1,43.872,10.781Z" transform="translate(-23.998)" fill="#439e55"/>
      <path id="Path_70" data-name="Path 70" d="M200.313,192.429a1.141,1.141,0,0,0,1.141-1.141v-2.662a1.141,1.141,0,0,0-1.141-1.141H197.27a1.141,1.141,0,0,0-1.141,1.141v2.662a1.141,1.141,0,0,0,1.141,1.141Zm-3.423-1.141v-2.662a.38.38,0,0,1,.38-.38h3.043a.38.38,0,0,1,.38.38v2.662a.38.38,0,0,1-.38.38H197.27A.38.38,0,0,1,196.89,191.288Z" transform="translate(-188.457 -179.129)" fill="#439e55"/>
      <path id="Path_71" data-name="Path 71" d="M213.958,417.884h-.38a.38.38,0,1,0,0,.761h.38a.38.38,0,1,0,0-.761Z" transform="translate(-204.764 -399.259)" fill="#439e55"/>
    </g>
  </g>
</svg>
