<svg xmlns="http://www.w3.org/2000/svg" width="56.44" height="56.44" viewBox="0 0 56.44 56.44">
  <g id="aquarius" transform="translate(7)">
    <g id="Group_35" data-name="Group 35" transform="translate(-7)">
      <g id="Group_180" data-name="Group 180">
        <path id="Path_83" data-name="Path 83" d="M28.22,0A28.22,28.22,0,1,0,56.44,28.22,28.252,28.252,0,0,0,28.22,0Zm0,54.494A26.274,26.274,0,1,1,54.494,28.22,26.3,26.3,0,0,1,28.22,54.494Z" opacity="0"/>
        <g id="Group_179" data-name="Group 179" transform="translate(-7.785 -4.078)">
          <path id="Path_84" data-name="Path 84" d="M9.344,30.438a1.34,1.34,0,0,0,.95-.394L19.339,21a1.072,1.072,0,0,1,1.509,0L28.19,28.34a3.757,3.757,0,0,0,5.31,0L40.841,21a1.072,1.072,0,0,1,1.509,0l7.341,7.341a3.757,3.757,0,0,0,5.309,0L64.046,19.3a1.344,1.344,0,1,0-1.9-1.9L53.1,26.44a1.069,1.069,0,0,1-1.509,0L44.25,19.1a3.757,3.757,0,0,0-5.309,0L31.6,26.44a1.069,1.069,0,0,1-1.509,0L22.749,19.1a3.757,3.757,0,0,0-5.309,0L8.394,28.144a1.344,1.344,0,0,0,.95,2.294Z" transform="translate(-0.215 -0.457)"/>
          <path id="Path_85" data-name="Path 85" d="M62.147,29.394,53.1,38.439a1.067,1.067,0,0,1-1.509,0L44.251,31.1a3.757,3.757,0,0,0-5.309,0L31.6,38.439a1.067,1.067,0,0,1-1.509,0L22.75,31.1a3.757,3.757,0,0,0-5.309,0L8.395,40.143a1.344,1.344,0,1,0,1.9,1.9L19.339,33a1.071,1.071,0,0,1,1.509,0l7.341,7.341a3.757,3.757,0,0,0,5.309,0L40.84,33a1.071,1.071,0,0,1,1.509,0l7.341,7.341a3.757,3.757,0,0,0,5.309,0L64.046,31.3a1.344,1.344,0,0,0-1.9-1.9Z" transform="translate(-0.215 3.669)"/>
        </g>
      </g>
    </g>
  </g>
</svg>
