<svg id="calculator2" enable-background="new 0 0 300 300" height="512" viewBox="0 0 300 300" width="512" xmlns="http://www.w3.org/2000/svg"><g><path d="m226 72h-152c-2.209 0-4 1.791-4 4v148c0 2.209 1.791 4 4 4h152c2.209 0 4-1.791 4-4v-148c0-2.208-1.791-4-4-4zm-4 76h-67.899l.091-68h67.808zm-75.808-68-.091 68h-68.101v-68zm-68.192 76h68.091l-.085 64h-68.006zm76.005 64 .085-64h67.91v64z"/><path d="m228.221 49.75h-156.442c-13.581 0-24.63 11.05-24.63 24.631v151.239c0 13.581 11.049 24.631 24.63 24.631h156.442c13.581 0 24.63-11.05 24.63-24.631v-151.24c.001-13.581-11.049-24.63-24.63-24.63zm16.631 175.87c0 9.17-7.46 16.631-16.63 16.631h-156.443c-9.17 0-16.63-7.461-16.63-16.631v-151.24c0-9.17 7.46-16.631 16.63-16.631h156.442c9.17 0 16.63 7.461 16.63 16.631v151.24z"/><path d="m174 116h12v12c0 2.209 1.791 4 4 4s4-1.791 4-4v-12h12c2.209 0 4-1.791 4-4s-1.791-4-4-4h-12v-12c0-2.209-1.791-4-4-4s-4 1.791-4 4v12h-12c-2.209 0-4 1.791-4 4s1.791 4 4 4z"/><path d="m95.857 130.142c.781.781 1.805 1.172 2.829 1.172 1.023 0 2.047-.391 2.829-1.172l10.828-10.828 10.828 10.828c.781.781 1.805 1.172 2.829 1.172s2.047-.391 2.829-1.172c1.562-1.562 1.562-4.095 0-5.656l-10.829-10.829 10.829-10.829c1.562-1.562 1.562-4.095 0-5.656-1.562-1.562-4.094-1.562-5.657 0l-10.829 10.828-10.828-10.828c-1.562-1.562-4.095-1.562-5.657 0s-1.562 4.095 0 5.656l10.829 10.829-10.829 10.829c-1.563 1.561-1.563 4.095-.001 5.656z"/><path d="m202 184h-28c-2.209 0-4 1.791-4 4s1.791 4 4 4h28c2.209 0 4-1.791 4-4s-1.791-4-4-4z"/><path d="m126 184h-32c-2.209 0-4 1.791-4 4s1.791 4 4 4h32c2.209 0 4-1.791 4-4s-1.791-4-4-4z"/><circle cx="110" cy="172" r="4"/><circle cx="110" cy="204" r="4"/></g></svg>