<svg xmlns="http://www.w3.org/2000/svg" width="33" height="33" viewBox="0 0 33 33"><defs><style>.a{fill:#439e55;}</style></defs><path class="a" d="M29.133,0H3.867A3.872,3.872,0,0,0,0,3.867V29.133A3.872,3.872,0,0,0,3.867,33H29.133A3.872,3.872,0,0,0,33,29.133V3.867A3.872,3.872,0,0,0,29.133,0Zm1.289,29.133a1.291,1.291,0,0,1-1.289,1.289H21.785V19.916h3.983l.658-4H21.785V13.148a1.9,1.9,0,0,1,1.934-1.934h2.643v-4H23.719a5.929,5.929,0,0,0-5.928,5.941v2.76H13.922v4h3.869V30.422H3.867a1.291,1.291,0,0,1-1.289-1.289V3.867A1.291,1.291,0,0,1,3.867,2.578H29.133a1.291,1.291,0,0,1,1.289,1.289Z"/></svg>