<svg xmlns="http://www.w3.org/2000/svg" width="37.604" height="32.539" viewBox="0 0 37.604 32.539"><defs><style>.a{fill:#fff;}</style></defs><g transform="translate(11.065 10.836)"><g transform="translate(0 0)"><path class="a" d="M128.722,142.533h-3.157v-3.157a1.153,1.153,0,0,0-1.145-1.161h-4.557a1.153,1.153,0,0,0-1.153,1.153v3.157h-3.149a1.153,1.153,0,0,0-1.161,1.145v4.557a1.153,1.153,0,0,0,1.153,1.153h3.157v3.149a1.153,1.153,0,0,0,1.145,1.161h4.55a1.153,1.153,0,0,0,1.153-1.153h0v-3.157h3.157a1.153,1.153,0,0,0,1.161-1.145v-4.55A1.153,1.153,0,0,0,128.722,142.533Zm-.395,5.3h-3.536a.774.774,0,0,0-.774.774v3.536h-3.76v-3.536a.774.774,0,0,0-.774-.774h-3.536v-3.753h3.536a.774.774,0,0,0,.774-.774v-3.544h3.753V143.3a.774.774,0,0,0,.774.774h3.544Z" transform="translate(-114.4 -138.216)"/></g></g><g transform="translate(0 0)"><path class="a" d="M32.265,31.232H25.889V28.508a2.252,2.252,0,0,0-2.178-2.323q-.1,0-.19,0h-9.44a2.252,2.252,0,0,0-2.366,2.131q0,.095,0,.19v2.708H5.339A5.018,5.018,0,0,0,0,36.555V53.384a5.018,5.018,0,0,0,5.339,5.339H32.265A5.018,5.018,0,0,0,37.6,53.384V36.571A5.014,5.014,0,0,0,32.265,31.232Zm-19-2.724a.726.726,0,0,1,.828-.828h9.432c.828,0,.828.6.828.828v2.708H13.262ZM36.056,53.384a3.476,3.476,0,0,1-3.791,3.791H5.339a3.479,3.479,0,0,1-3.791-3.791V36.571a3.476,3.476,0,0,1,3.791-3.791H32.265a3.479,3.479,0,0,1,3.791,3.791Z" transform="translate(0 -26.184)"/></g></svg>