<svg xmlns="http://www.w3.org/2000/svg" width="33" height="33" viewBox="0 0 33 33"><defs><style>.a{fill:#439e55;}</style></defs><path class="a" d="M24.066,0H8.932A8.943,8.943,0,0,0,0,8.933V24.067A8.943,8.943,0,0,0,8.932,33H24.066A8.943,8.943,0,0,0,33,24.067V8.933A8.943,8.943,0,0,0,24.066,0Zm7,24.067a7.006,7.006,0,0,1-7,7H8.932a7.006,7.006,0,0,1-7-7V8.933a7.006,7.006,0,0,1,7-7H24.066a7.006,7.006,0,0,1,7,7Zm0,0" transform="translate(0.001 0)"/><path class="a" d="M125.027,116a9.023,9.023,0,1,0,9.023,9.023A9.033,9.033,0,0,0,125.027,116Zm0,16.112a7.089,7.089,0,1,1,7.089-7.089A7.1,7.1,0,0,1,125.027,132.116Zm0,0" transform="translate(-108.527 -108.527)"/><path class="a" d="M360.643,66.285a2.666,2.666,0,1,0,2.667,2.666A2.669,2.669,0,0,0,360.643,66.285Zm0,3.4a.732.732,0,1,1,.732-.732A.733.733,0,0,1,360.643,69.683Zm0,0" transform="translate(-334.904 -62.013)"/></svg>