<?xml version="1.0" encoding="utf-8"?>
<!-- Svg Vector Icons : http://www.onlinewebfonts.com/icon -->
<!DOCTYPE svg PUBLIC "-//W3C//DTD SVG 1.1//EN" "http://www.w3.org/Graphics/SVG/1.1/DTD/svg11.dtd">
<svg version="1.1" xmlns="http://www.w3.org/2000/svg" xmlns:xlink="http://www.w3.org/1999/xlink" x="0px" y="0px" viewBox="0 0 1000 1000" enable-background="new 0 0 1000 1000" xml:space="preserve">
<metadata> Svg Vector Icons : http://www.onlinewebfonts.com/icon </metadata>
<g><g><g><path d="M10,823.2c0,58.2,47.4,105.6,105.6,105.6h768.8c58.2,0,105.6-47.4,105.6-105.6V341.6c0-58.2-47.4-105.6-105.6-105.6H757.7v-80.3c0-46.6-37.9-84.5-84.5-84.5H326.8c-46.6,0-84.5,37.9-84.5,84.5V236H115.6C57.4,236,10,283.4,10,341.6V823.2z M833.7,312h50.7c16.3,0,29.6,13.3,29.6,29.6v481.6c0,16.3-13.3,29.6-29.6,29.6h-50.7V312L833.7,312z M309.9,155.7c0-9.3,7.6-16.9,16.9-16.9h346.4c9.3,0,16.9,7.6,16.9,16.9V236H309.9V155.7z M233.9,312h532.2v540.7H233.9V312z M86,341.6c0-16.3,13.3-29.6,29.6-29.6h50.7v540.7h-50.7c-16.3,0-29.6-13.3-29.6-29.6V341.6z"/><polygon points="550.3,409.2 466.6,409.2 466.6,540.6 335.3,540.6 335.3,624.2 466.6,624.2 466.6,755.6 550.3,755.6 550.3,624.2 681.6,624.2 681.6,540.6 550.3,540.6 "/></g></g><g></g><g></g><g></g><g></g><g></g><g></g><g></g><g></g><g></g><g></g><g></g><g></g><g></g><g></g><g></g></g>
</svg>