<svg xmlns="http://www.w3.org/2000/svg" width="53.646" height="42.15" viewBox="0 0 53.646 42.15"><defs><style>.a{fill:#fff;}</style></defs><g transform="translate(0 0)"><path class="a" d="M5.149,67.812q1.018.718,6.137,4.266t7.843,5.463q.3.21,1.272.913t1.616,1.138q.644.434,1.557.973a9.033,9.033,0,0,0,1.721.807,4.743,4.743,0,0,0,1.5.269h.06a4.747,4.747,0,0,0,1.5-.269,9.041,9.041,0,0,0,1.721-.807q.913-.539,1.557-.973t1.617-1.138q.973-.7,1.272-.913,2.754-1.916,14.01-9.729a14.221,14.221,0,0,0,3.652-3.682,7.906,7.906,0,0,0,1.467-4.52,4.83,4.83,0,0,0-4.79-4.79H4.79a4.275,4.275,0,0,0-3.547,1.556A6.043,6.043,0,0,0,0,60.268a6.993,6.993,0,0,0,1.647,4.087A14.859,14.859,0,0,0,5.149,67.812Z" transform="translate(0 -54.82)"/><path class="a" d="M50.652,187.041q-9.818,6.645-14.908,10.328-1.706,1.257-2.769,1.961a17.094,17.094,0,0,1-2.829,1.437,8.614,8.614,0,0,1-3.293.733h-.061a8.617,8.617,0,0,1-3.293-.733,17.1,17.1,0,0,1-2.829-1.437q-1.062-.7-2.769-1.961-4.042-2.964-14.878-10.328A15.858,15.858,0,0,1,0,184.437v23.769a4.611,4.611,0,0,0,1.407,3.383A4.612,4.612,0,0,0,4.79,213H48.857a4.8,4.8,0,0,0,4.79-4.79V184.437A16.512,16.512,0,0,1,50.652,187.041Z" transform="translate(0 -170.846)"/></g></svg>