<?xml version="1.0" encoding="iso-8859-1"?>
<!-- Generator: Adobe Illustrator 19.0.0, SVG Export Plug-In . SVG Version: 6.00 Build 0)  -->
<svg version="1.1" id="Capa_1" xmlns="http://www.w3.org/2000/svg" xmlns:xlink="http://www.w3.org/1999/xlink" x="0px" y="0px"
	 viewBox="0 0 512.024 512.024" style="enable-background:new 0 0 512.024 512.024;" xml:space="preserve">
<g>
	<g>
		<path d="M496.012,224h-192c-8.832,0-16,7.168-16,16v256c0,8.832,7.168,16,16,16h192c8.832,0,16-7.168,16-16V240
			C512.012,231.168,504.844,224,496.012,224z M480.012,480h-160V320h160V480z M480.012,288h-160v-32h160V288z"/>
	</g>
</g>
<g>
	<g>
		<rect x="352.012" y="352" width="32" height="32"/>
	</g>
</g>
<g>
	<g>
		<rect x="416.012" y="352" width="32" height="32"/>
	</g>
</g>
<g>
	<g>
		<rect x="352.012" y="416" width="32" height="32"/>
	</g>
</g>
<g>
	<g>
		<rect x="416.012" y="416" width="32" height="32"/>
	</g>
</g>
<g>
	<g>
		<path d="M400.012,0h-320c-44.128,0-80,35.872-80,80v416c0,5.312,2.624,10.272,7.04,13.248c2.688,1.824,5.792,2.752,8.96,2.752
			c2.016,0,4.032-0.384,5.952-1.152l74.048-29.632l74.048,29.632c3.808,1.568,8.064,1.568,11.872,0l80-32
			c8.224-3.296,12.192-12.608,8.896-20.768c-3.264-8.224-12.64-12.256-20.768-8.928l-74.048,29.632l-74.048-29.632
			c-3.808-1.568-8.064-1.568-11.872,0l-58.08,23.232V80c0-26.464,21.536-48,48-48h256.384c-10.144,13.408-16.384,29.92-16.384,48v96
			c0,8.832,7.168,16,16,16c8.832,0,16-7.168,16-16v-16h112c8.832,0,16-7.168,16-16V80C480.012,35.872,444.14,0,400.012,0z
			 M448.012,128h-96V80c0-26.464,21.536-48,48-48s48,21.536,48,48V128z"/>
	</g>
</g>
<g>
	<g>
		<path d="M272.012,96h-192c-8.832,0-16,7.168-16,16c0,8.832,7.168,16,16,16h192c8.832,0,16-7.168,16-16
			C288.012,103.168,280.844,96,272.012,96z"/>
	</g>
</g>
<g>
	<g>
		<path d="M208.012,224h-128c-8.832,0-16,7.168-16,16c0,8.832,7.168,16,16,16h128c8.832,0,16-7.168,16-16
			C224.012,231.168,216.844,224,208.012,224z"/>
	</g>
</g>
<g>
	<g>
		<path d="M176.012,288h-96c-8.832,0-16,7.168-16,16c0,8.832,7.168,16,16,16h96c8.832,0,16-7.168,16-16
			C192.012,295.168,184.844,288,176.012,288z"/>
	</g>
</g>
<g>
	<g>
		<path d="M176.012,352h-96c-8.832,0-16,7.168-16,16c0,8.832,7.168,16,16,16h96c8.832,0,16-7.168,16-16
			C192.012,359.168,184.844,352,176.012,352z"/>
	</g>
</g>
<g>
</g>
<g>
</g>
<g>
</g>
<g>
</g>
<g>
</g>
<g>
</g>
<g>
</g>
<g>
</g>
<g>
</g>
<g>
</g>
<g>
</g>
<g>
</g>
<g>
</g>
<g>
</g>
<g>
</g>
</svg>
